FILE "1.raw" BINARY
  TRACK 01 AUDIO
    INDEX 01 00:00:00
FILE "2.raw" BINARY
  TRACK 02 AUDIO
    INDEX 01 00:00:00
FILE "3.raw" BINARY
  TRACK 03 AUDIO
    INDEX 01 00:00:00
FILE "4.raw" BINARY
  TRACK 04 AUDIO
    INDEX 01 00:00:00
FILE "5.raw" BINARY
  TRACK 05 AUDIO
    INDEX 01 00:00:00
